<svg height="512" viewBox="0 0 192 192" width="512" xmlns="http://www.w3.org/2000/svg"><g id="_03-speed" data-name="03-speed"><path d="m96 0a96 96 0 1 0 96 96 96.108 96.108 0 0 0 -96-96zm0 176a80 80 0 1 1 80-80 80.091 80.091 0 0 1 -80 80z"/><path d="m96 32a64.072 64.072 0 0 0 -64 64h16a48 48 0 1 1 48 48v16a64 64 0 0 0 0-128z"/><path d="m115.2 110.4c6.136-8.181 7.635-30.481 7.994-39.688a8 8 0 0 0 -10.532-7.9c-8.738 2.924-29.726 10.606-35.862 18.788a24.006 24.006 0 0 0 19.15 38.405 24.408 24.408 0 0 0 3.444-.246 23.839 23.839 0 0 0 15.806-9.359zm-24-8a8 8 0 0 1 -1.6-11.2c1.523-1.918 8.365-5.5 16.705-8.941-.972 8.975-2.491 16.546-3.9 18.536a8 8 0 0 1 -11.2 1.6z"/></g></svg>