<?xml version="1.0" standalone="no"?>
<!DOCTYPE svg PUBLIC "-//W3C//DTD SVG 20010904//EN"
 "http://www.w3.org/TR/2001/REC-SVG-20010904/DTD/svg10.dtd">
<svg version="1.0" xmlns="http://www.w3.org/2000/svg"
 width="394.000000pt" height="386.000000pt" viewBox="0 0 394.000000 386.000000"
 preserveAspectRatio="xMidYMid meet">
<metadata>
Created by potrace 1.16, written by Peter Selinger 2001-2019
</metadata>
<g transform="translate(0.000000,386.000000) scale(0.100000,-0.100000)"
fill="#000000" stroke="none">
<path d="M190 2200 l0 -1510 208 2 207 3 3 1508 2 1507 -210 0 -210 0 0 -1510z"/>
<path d="M2790 3295 l0 -205 470 0 470 0 0 205 0 205 -470 0 -470 0 0 -205z"/>
<path d="M815 3388 c-3 -7 -4 -616 -3 -1353 l3 -1340 363 -3 362 -2 0 1355 0
1355 -360 0 c-279 0 -362 -3 -365 -12z m516 -353 l0 -150 -155 -3 -156 -3 0
156 0 156 156 -3 155 -3 0 -150z"/>
<path d="M1750 1835 l0 -1145 415 2 415 3 0 1140 0 1140 -415 3 -415 2 0
-1145z m469 921 c57 -30 68 -110 22 -157 -65 -64 -171 -20 -171 71 0 79 76
123 149 86z m-15 -1660 c117 -49 67 -215 -57 -192 -105 20 -106 164 -2 198 11
3 21 6 23 7 1 1 18 -5 36 -13z"/>
<path d="M2797 2873 c-4 -3 -7 -354 -7 -780 l0 -773 470 0 470 0 0 780 0 780
-463 0 c-255 0 -467 -3 -470 -7z"/>
<path d="M2797 1103 c-4 -3 -7 -98 -7 -210 l0 -203 470 0 470 0 0 210 0 210
-463 0 c-255 0 -467 -3 -470 -7z"/>
<path d="M190 325 l0 -155 1770 0 1770 0 0 155 0 155 -1770 0 -1770 0 0 -155z"/>
</g>
</svg>
